<mxfile host="app.diagrams.net" modified="2023-10-10T06:55:24.457Z" agent="Mozilla/5.0 (Windows NT 10.0; Win64; x64) AppleWebKit/537.36 (KHTML, like Gecko) Chrome/117.0.0.0 Safari/537.36" etag="PhqWmWN-pinqhDvhQ1lZ" version="22.0.4" type="device">
  <diagram id="C5RBs43oDa-KdzZeNtuy" name="Page-1">
    <mxGraphModel dx="1434" dy="750" grid="1" gridSize="10" guides="1" tooltips="1" connect="1" arrows="1" fold="1" page="1" pageScale="1" pageWidth="827" pageHeight="1169" math="0" shadow="0">
      <root>
        <mxCell id="WIyWlLk6GJQsqaUBKTNV-0" />
        <mxCell id="WIyWlLk6GJQsqaUBKTNV-1" parent="WIyWlLk6GJQsqaUBKTNV-0" />
        <mxCell id="zkfFHV4jXpPFQw0GAbJ--0" value="Aleshko_account" style="swimlane;fontStyle=2;align=center;verticalAlign=top;childLayout=stackLayout;horizontal=1;startSize=30;horizontalStack=0;resizeParent=1;resizeLast=0;collapsible=1;marginBottom=0;rounded=0;shadow=0;strokeWidth=1;" parent="WIyWlLk6GJQsqaUBKTNV-1" vertex="1">
          <mxGeometry x="170" y="150" width="230" height="250" as="geometry">
            <mxRectangle x="230" y="140" width="160" height="26" as="alternateBounds" />
          </mxGeometry>
        </mxCell>
        <mxCell id="zkfFHV4jXpPFQw0GAbJ--1" value="name: CString" style="text;align=left;verticalAlign=top;spacingLeft=4;spacingRight=4;overflow=hidden;rotatable=0;points=[[0,0.5],[1,0.5]];portConstraint=eastwest;" parent="zkfFHV4jXpPFQw0GAbJ--0" vertex="1">
          <mxGeometry y="30" width="230" height="26" as="geometry" />
        </mxCell>
        <mxCell id="9kKK2WDR_7HMkzAH4nip-0" value="type:CString" style="text;align=left;verticalAlign=top;spacingLeft=4;spacingRight=4;overflow=hidden;rotatable=0;points=[[0,0.5],[1,0.5]];portConstraint=eastwest;" parent="zkfFHV4jXpPFQw0GAbJ--0" vertex="1">
          <mxGeometry y="56" width="230" height="26" as="geometry" />
        </mxCell>
        <mxCell id="zkfFHV4jXpPFQw0GAbJ--2" value="money:int" style="text;align=left;verticalAlign=top;spacingLeft=4;spacingRight=4;overflow=hidden;rotatable=0;points=[[0,0.5],[1,0.5]];portConstraint=eastwest;rounded=0;shadow=0;html=0;" parent="zkfFHV4jXpPFQw0GAbJ--0" vertex="1">
          <mxGeometry y="82" width="230" height="26" as="geometry" />
        </mxCell>
        <mxCell id="43_dNj90BjDbqp2XKnE4-12" value="&lt;div style=&quot;&quot;&gt;&lt;font face=&quot;helvetica&quot;&gt;&lt;span style=&quot;background-color: rgb(248, 249, 250);&quot;&gt;Aleshko_account&lt;/span&gt;&lt;/font&gt;&lt;span style=&quot;background-color: initial;&quot;&gt;();&lt;/span&gt;&lt;/div&gt;&lt;div style=&quot;&quot;&gt;~&lt;font face=&quot;helvetica&quot;&gt;&lt;span style=&quot;background-color: rgb(248, 249, 250);&quot;&gt;Aleshko_account&lt;/span&gt;&lt;/font&gt;();&lt;/div&gt;&lt;span style=&quot;text-align: center&quot;&gt;Serialize(CArchive&amp;amp; ar):&amp;nbsp;&lt;/span&gt;&lt;span style=&quot;text-align: center&quot;&gt;void&lt;/span&gt;&lt;br style=&quot;padding: 0px ; margin: 0px ; text-align: center&quot;&gt;&lt;span style=&quot;text-align: center&quot;&gt;input():&amp;nbsp;&lt;/span&gt;&lt;span style=&quot;text-align: center&quot;&gt;void&lt;br&gt;&lt;/span&gt;&lt;span style=&quot;text-align: center&quot;&gt;output():&amp;nbsp;&lt;/span&gt;&lt;span style=&quot;text-align: center&quot;&gt;void&lt;/span&gt;&lt;span style=&quot;text-align: center&quot;&gt;&lt;br&gt;&lt;/span&gt;" style="text;html=1;align=left;verticalAlign=middle;resizable=0;points=[];autosize=1;strokeColor=none;fillColor=none;" parent="zkfFHV4jXpPFQw0GAbJ--0" vertex="1">
          <mxGeometry y="108" width="230" height="90" as="geometry" />
        </mxCell>
        <mxCell id="43_dNj90BjDbqp2XKnE4-19" value="" style="endArrow=none;html=1;rounded=0;exitX=-0.001;exitY=0.005;exitDx=0;exitDy=0;exitPerimeter=0;entryX=1;entryY=-0.006;entryDx=0;entryDy=0;entryPerimeter=0;" parent="zkfFHV4jXpPFQw0GAbJ--0" source="43_dNj90BjDbqp2XKnE4-12" target="43_dNj90BjDbqp2XKnE4-12" edge="1">
          <mxGeometry width="50" height="50" relative="1" as="geometry">
            <mxPoint x="240" y="280" as="sourcePoint" />
            <mxPoint x="290" y="230" as="targetPoint" />
          </mxGeometry>
        </mxCell>
        <mxCell id="zkfFHV4jXpPFQw0GAbJ--13" value="Aleshko_vip" style="swimlane;fontStyle=0;align=center;verticalAlign=top;childLayout=stackLayout;horizontal=1;startSize=26;horizontalStack=0;resizeParent=1;resizeLast=0;collapsible=1;marginBottom=0;rounded=0;shadow=0;strokeWidth=1;" parent="WIyWlLk6GJQsqaUBKTNV-1" vertex="1">
          <mxGeometry x="195" y="480" width="180" height="180" as="geometry">
            <mxRectangle x="340" y="380" width="170" height="26" as="alternateBounds" />
          </mxGeometry>
        </mxCell>
        <mxCell id="43_dNj90BjDbqp2XKnE4-20" value="credit_limit:int" style="text;html=1;strokeColor=none;fillColor=none;align=left;verticalAlign=middle;whiteSpace=wrap;rounded=0;" parent="zkfFHV4jXpPFQw0GAbJ--13" vertex="1">
          <mxGeometry y="26" width="180" height="30" as="geometry" />
        </mxCell>
        <mxCell id="43_dNj90BjDbqp2XKnE4-17" value="&lt;div style=&quot;&quot;&gt;&lt;font face=&quot;helvetica&quot;&gt;&lt;span style=&quot;background-color: rgb(248, 249, 250);&quot;&gt;Aleshko_vip&lt;/span&gt;&lt;/font&gt;&lt;span style=&quot;background-color: initial;&quot;&gt;();&lt;/span&gt;&lt;/div&gt;&lt;div&gt;&lt;span style=&quot;text-align: center&quot;&gt;~&lt;font face=&quot;helvetica&quot;&gt;&lt;span style=&quot;background-color: rgb(248, 249, 250);&quot;&gt;Aleshko_vip&lt;/span&gt;&lt;/font&gt;&lt;/span&gt;&lt;span style=&quot;text-align: center&quot;&gt;()&lt;/span&gt;&lt;/div&gt;&lt;span style=&quot;text-align: center&quot;&gt;Serialize(CArchive&amp;amp; ar):&amp;nbsp;&lt;/span&gt;&lt;span style=&quot;text-align: center&quot;&gt;void&lt;/span&gt;&lt;br style=&quot;padding: 0px ; margin: 0px ; text-align: center&quot;&gt;&lt;span style=&quot;text-align: center&quot;&gt;input():&amp;nbsp;&lt;/span&gt;&lt;span style=&quot;text-align: center&quot;&gt;void&lt;br&gt;&lt;/span&gt;&lt;span style=&quot;text-align: center&quot;&gt;output():&amp;nbsp;&lt;/span&gt;&lt;span style=&quot;text-align: center&quot;&gt;void&lt;/span&gt;&lt;span style=&quot;text-align: center&quot;&gt;&lt;br&gt;&lt;/span&gt;" style="text;html=1;align=left;verticalAlign=middle;resizable=0;points=[];autosize=1;strokeColor=none;fillColor=none;" parent="zkfFHV4jXpPFQw0GAbJ--13" vertex="1">
          <mxGeometry y="56" width="180" height="90" as="geometry" />
        </mxCell>
        <mxCell id="43_dNj90BjDbqp2XKnE4-23" value="" style="endArrow=none;html=1;rounded=0;endSize=13;exitX=0;exitY=-0.011;exitDx=0;exitDy=0;exitPerimeter=0;entryX=1;entryY=1;entryDx=0;entryDy=0;" parent="zkfFHV4jXpPFQw0GAbJ--13" source="43_dNj90BjDbqp2XKnE4-17" target="43_dNj90BjDbqp2XKnE4-20" edge="1">
          <mxGeometry width="50" height="50" relative="1" as="geometry">
            <mxPoint x="35" as="sourcePoint" />
            <mxPoint x="85" y="-50" as="targetPoint" />
          </mxGeometry>
        </mxCell>
        <mxCell id="zkfFHV4jXpPFQw0GAbJ--17" value="Aleshko_bank" style="swimlane;fontStyle=0;align=center;verticalAlign=top;childLayout=stackLayout;horizontal=1;startSize=26;horizontalStack=0;resizeParent=1;resizeLast=0;collapsible=1;marginBottom=0;rounded=0;shadow=0;strokeWidth=1;" parent="WIyWlLk6GJQsqaUBKTNV-1" vertex="1">
          <mxGeometry x="450" y="160" width="270" height="206" as="geometry">
            <mxRectangle x="550" y="140" width="160" height="26" as="alternateBounds" />
          </mxGeometry>
        </mxCell>
        <mxCell id="43_dNj90BjDbqp2XKnE4-6" value="&lt;div style=&quot;text-align: center;&quot;&gt;&lt;span style=&quot;background-color: initial;&quot;&gt;accounts: vector&amp;lt;shared_ptr&amp;lt;&lt;/span&gt;&lt;font face=&quot;helvetica&quot;&gt;&lt;span style=&quot;background-color: rgb(248, 249, 250);&quot;&gt;Aleshko_account&lt;/span&gt;&lt;/font&gt;&lt;span style=&quot;background-color: initial;&quot;&gt;&amp;gt;&amp;gt;&amp;nbsp;&lt;/span&gt;&lt;/div&gt;" style="text;whiteSpace=wrap;html=1;" parent="zkfFHV4jXpPFQw0GAbJ--17" vertex="1">
          <mxGeometry y="26" width="270" height="40" as="geometry" />
        </mxCell>
        <mxCell id="43_dNj90BjDbqp2XKnE4-9" value="" style="endArrow=none;html=1;strokeWidth=1;fontSize=11;targetPerimeterSpacing=3;curved=1;entryX=1;entryY=1;entryDx=0;entryDy=0;" parent="zkfFHV4jXpPFQw0GAbJ--17" target="43_dNj90BjDbqp2XKnE4-6" edge="1">
          <mxGeometry width="50" height="50" relative="1" as="geometry">
            <mxPoint y="65.99999999999989" as="sourcePoint" />
            <mxPoint x="160" y="65.99999999999989" as="targetPoint" />
          </mxGeometry>
        </mxCell>
        <mxCell id="43_dNj90BjDbqp2XKnE4-11" value="&lt;span style=&quot;color: rgb(0 , 0 , 0) ; font-family: &amp;quot;helvetica&amp;quot; ; font-size: 12px ; font-style: normal ; font-weight: 400 ; letter-spacing: normal ; text-align: center ; text-indent: 0px ; text-transform: none ; word-spacing: 0px ; background-color: rgb(248 , 249 , 250) ; float: none ; display: inline&quot;&gt;Aleshko_bank();&lt;/span&gt;&lt;br style=&quot;padding: 0px ; margin: 0px ; color: rgb(0 , 0 , 0) ; font-family: &amp;quot;helvetica&amp;quot; ; font-size: 12px ; font-style: normal ; font-weight: 400 ; letter-spacing: normal ; text-align: center ; text-indent: 0px ; text-transform: none ; word-spacing: 0px ; background-color: rgb(248 , 249 , 250)&quot;&gt;&lt;span style=&quot;color: rgb(0 , 0 , 0) ; font-family: &amp;quot;helvetica&amp;quot; ; font-size: 12px ; font-style: normal ; font-weight: 400 ; letter-spacing: normal ; text-align: center ; text-indent: 0px ; text-transform: none ; word-spacing: 0px ; background-color: rgb(248 , 249 , 250) ; float: none ; display: inline&quot;&gt;~Aleshko_bank();&lt;/span&gt;&lt;br style=&quot;padding: 0px ; margin: 0px ; color: rgb(0 , 0 , 0) ; font-family: &amp;quot;helvetica&amp;quot; ; font-size: 12px ; font-style: normal ; font-weight: 400 ; letter-spacing: normal ; text-align: center ; text-indent: 0px ; text-transform: none ; word-spacing: 0px ; background-color: rgb(248 , 249 , 250)&quot;&gt;&lt;span style=&quot;color: rgb(0 , 0 , 0) ; font-family: &amp;quot;helvetica&amp;quot; ; font-size: 12px ; font-style: normal ; font-weight: 400 ; letter-spacing: normal ; text-align: center ; text-indent: 0px ; text-transform: none ; word-spacing: 0px ; background-color: rgb(248 , 249 , 250) ; float: none ; display: inline&quot;&gt;addAccount():&amp;nbsp;&lt;/span&gt;&lt;span style=&quot;text-align: center&quot;&gt;void&lt;br&gt;&lt;/span&gt;addVIP(): void&lt;br style=&quot;padding: 0px ; margin: 0px ; color: rgb(0 , 0 , 0) ; font-family: &amp;quot;helvetica&amp;quot; ; font-size: 12px ; font-style: normal ; font-weight: 400 ; letter-spacing: normal ; text-align: center ; text-indent: 0px ; text-transform: none ; word-spacing: 0px ; background-color: rgb(248 , 249 , 250)&quot;&gt;&lt;span style=&quot;color: rgb(0 , 0 , 0) ; font-family: &amp;quot;helvetica&amp;quot; ; font-size: 12px ; font-style: normal ; font-weight: 400 ; letter-spacing: normal ; text-align: center ; text-indent: 0px ; text-transform: none ; word-spacing: 0px ; background-color: rgb(248 , 249 , 250) ; float: none ; display: inline&quot;&gt;displayAllAccounts():&amp;nbsp;&lt;/span&gt;&lt;span style=&quot;text-align: center&quot;&gt;void&lt;/span&gt;&lt;br style=&quot;padding: 0px ; margin: 0px ; color: rgb(0 , 0 , 0) ; font-family: &amp;quot;helvetica&amp;quot; ; font-size: 12px ; font-style: normal ; font-weight: 400 ; letter-spacing: normal ; text-align: center ; text-indent: 0px ; text-transform: none ; word-spacing: 0px ; background-color: rgb(248 , 249 , 250)&quot;&gt;&lt;span style=&quot;color: rgb(0 , 0 , 0) ; font-family: &amp;quot;helvetica&amp;quot; ; font-size: 12px ; font-style: normal ; font-weight: 400 ; letter-spacing: normal ; text-align: center ; text-indent: 0px ; text-transform: none ; word-spacing: 0px ; background-color: rgb(248 , 249 , 250) ; float: none ; display: inline&quot;&gt;loadALlAccounts(const CString&amp;amp; filename):&amp;nbsp;&lt;/span&gt;&lt;span style=&quot;text-align: center&quot;&gt;void&lt;/span&gt;&lt;br style=&quot;padding: 0px ; margin: 0px ; color: rgb(0 , 0 , 0) ; font-family: &amp;quot;helvetica&amp;quot; ; font-size: 12px ; font-style: normal ; font-weight: 400 ; letter-spacing: normal ; text-align: center ; text-indent: 0px ; text-transform: none ; word-spacing: 0px ; background-color: rgb(248 , 249 , 250)&quot;&gt;&lt;span style=&quot;color: rgb(0 , 0 , 0) ; font-family: &amp;quot;helvetica&amp;quot; ; font-size: 12px ; font-style: normal ; font-weight: 400 ; letter-spacing: normal ; text-align: center ; text-indent: 0px ; text-transform: none ; word-spacing: 0px ; background-color: rgb(248 , 249 , 250) ; float: none ; display: inline&quot;&gt;saveAllAccounts(const CString&amp;amp; filename):&amp;nbsp;&lt;/span&gt;&lt;span style=&quot;text-align: center&quot;&gt;void&lt;/span&gt;&lt;br style=&quot;padding: 0px ; margin: 0px ; color: rgb(0 , 0 , 0) ; font-family: &amp;quot;helvetica&amp;quot; ; font-size: 12px ; font-style: normal ; font-weight: 400 ; letter-spacing: normal ; text-align: center ; text-indent: 0px ; text-transform: none ; word-spacing: 0px ; background-color: rgb(248 , 249 , 250)&quot;&gt;&lt;span style=&quot;color: rgb(0 , 0 , 0) ; font-family: &amp;quot;helvetica&amp;quot; ; font-size: 12px ; font-style: normal ; font-weight: 400 ; letter-spacing: normal ; text-align: center ; text-indent: 0px ; text-transform: none ; word-spacing: 0px ; background-color: rgb(248 , 249 , 250) ; float: none ; display: inline&quot;&gt;clear():&amp;nbsp;&lt;/span&gt;&lt;span style=&quot;text-align: center&quot;&gt;void&lt;/span&gt;" style="text;whiteSpace=wrap;html=1;" parent="zkfFHV4jXpPFQw0GAbJ--17" vertex="1">
          <mxGeometry y="66" width="270" height="140" as="geometry" />
        </mxCell>
        <mxCell id="43_dNj90BjDbqp2XKnE4-0" value="" style="endArrow=block;html=1;rounded=0;entryX=0.5;entryY=1;entryDx=0;entryDy=0;endFill=0;startArrow=none;exitX=0.5;exitY=0;exitDx=0;exitDy=0;" parent="WIyWlLk6GJQsqaUBKTNV-1" source="43_dNj90BjDbqp2XKnE4-1" target="zkfFHV4jXpPFQw0GAbJ--0" edge="1">
          <mxGeometry width="50" height="50" relative="1" as="geometry">
            <mxPoint x="280" y="640" as="sourcePoint" />
            <mxPoint x="440" y="320" as="targetPoint" />
            <Array as="points" />
          </mxGeometry>
        </mxCell>
        <mxCell id="43_dNj90BjDbqp2XKnE4-5" value="" style="endArrow=diamondThin;html=1;rounded=0;endFill=1;exitX=0.994;exitY=0.749;exitDx=0;exitDy=0;exitPerimeter=0;entryX=-0.003;entryY=0.375;entryDx=0;entryDy=0;entryPerimeter=0;endSize=13;" parent="WIyWlLk6GJQsqaUBKTNV-1" source="zkfFHV4jXpPFQw0GAbJ--1" target="43_dNj90BjDbqp2XKnE4-6" edge="1">
          <mxGeometry width="50" height="50" relative="1" as="geometry">
            <mxPoint x="370" y="250" as="sourcePoint" />
            <mxPoint x="420" y="200" as="targetPoint" />
          </mxGeometry>
        </mxCell>
        <mxCell id="43_dNj90BjDbqp2XKnE4-1" value="Extends" style="text;html=1;strokeColor=none;fillColor=none;align=center;verticalAlign=middle;whiteSpace=wrap;rounded=0;" parent="WIyWlLk6GJQsqaUBKTNV-1" vertex="1">
          <mxGeometry x="255" y="440" width="60" height="30" as="geometry" />
        </mxCell>
        <mxCell id="43_dNj90BjDbqp2XKnE4-21" value="" style="endArrow=none;html=1;rounded=0;entryX=0.5;entryY=1;entryDx=0;entryDy=0;endFill=0;startArrow=none;exitX=0.5;exitY=0;exitDx=0;exitDy=0;" parent="WIyWlLk6GJQsqaUBKTNV-1" source="zkfFHV4jXpPFQw0GAbJ--13" target="43_dNj90BjDbqp2XKnE4-1" edge="1">
          <mxGeometry width="50" height="50" relative="1" as="geometry">
            <mxPoint x="285" y="630" as="sourcePoint" />
            <mxPoint x="285" y="400" as="targetPoint" />
            <Array as="points" />
          </mxGeometry>
        </mxCell>
      </root>
    </mxGraphModel>
  </diagram>
</mxfile>
